<svg xmlns="http://www.w3.org/2000/svg" width="12.844" height="16.513" viewBox="0 0 12.844 16.513"><defs><style>.a{fill:#186696;}</style></defs><g transform="translate(-851 -241)"><g transform="translate(851 241)"><g transform="translate(0 0)"><path class="a" d="M6.422,48A6.429,6.429,0,0,0,0,54.422c0,3.3,5.152,9.132,5.739,9.787a.917.917,0,0,0,1.365,0c.587-.655,5.739-6.491,5.739-9.787A6.429,6.429,0,0,0,6.422,48Zm0,14.2c-2-2.376-4.587-6.024-4.587-7.774a4.587,4.587,0,1,1,9.174,0C11.009,56.17,8.425,59.82,6.422,62.2Z" transform="translate(0 -48)"/></g></g><g transform="translate(854.669 244.67)"><g transform="translate(0 0)"><path class="a" d="M66.752,112a2.752,2.752,0,1,0,2.752,2.752A2.756,2.756,0,0,0,66.752,112Zm0,3.67a.917.917,0,1,1,.917-.917A.919.919,0,0,1,66.752,115.67Z" transform="translate(-64 -112)"/></g></g></g></svg>