<svg xmlns="http://www.w3.org/2000/svg" width="56.654" height="53.956" viewBox="0 0 56.654 53.956"><defs><style>.a{fill:#fff;}</style></defs><g transform="translate(0 -16.172)"><g transform="translate(0 16.172)"><path class="a" d="M55.547,24.749H39.033a9.682,9.682,0,0,0-9.43,7.493l0,.006-.168.725V27.2a5.529,5.529,0,1,0-2.213.025v5.748l-.168-.725,0-.006a9.681,9.681,0,0,0-9.43-7.493H1.107A1.116,1.116,0,0,0,0,25.873v.918a5.808,5.808,0,0,0,3.044,5.114v.476A5.809,5.809,0,0,0,6.088,37.5v.476a5.78,5.78,0,0,0,5.749,5.8H27.22v3.548h-5.7a4.082,4.082,0,0,0,0,8.162h5.7v3.61H21.736a3.59,3.59,0,0,0,0,7.179H27.22V69a1.107,1.107,0,1,0,2.213,0V66.268h8.718a1.125,1.125,0,0,0,0-2.25H29.433v-2.68h5.841a4.055,4.055,0,0,0,0-8.109H29.433V49.567H35.3a3.994,3.994,0,0,0,3.953-4.024,4.044,4.044,0,0,0-.4-1.774h5.962a5.78,5.78,0,0,0,5.749-5.8V37.5a5.809,5.809,0,0,0,3.044-5.114v-.476a5.809,5.809,0,0,0,3.044-5.114v-.918A1.116,1.116,0,0,0,55.547,24.749Zm-30.6-3a3.317,3.317,0,1,1,3.317,3.327,3.326,3.326,0,0,1-3.317-3.327ZM11.837,41.519a3.545,3.545,0,0,1-3.53-3.34h7.732a1.125,1.125,0,0,0,0-2.25H8.793a3.545,3.545,0,0,1-3.53-3.34h.4l.06,0H15.935a1.125,1.125,0,0,0,0-2.25H5.809l-.06,0A3.545,3.545,0,0,1,2.219,27h15.4A7.467,7.467,0,0,1,24.9,32.767l2.03,8.753Zm15.383,22.5H21.736a1.34,1.34,0,0,1,0-2.68H27.22Zm8.054-8.539a1.805,1.805,0,0,1,0,3.61H29.433v-3.61Zm-8.054-2.25h-5.7a1.831,1.831,0,0,1,0-3.662h5.7Zm9.824-7.686a1.759,1.759,0,0,1-1.74,1.774H29.433V43.769h5.751a1.779,1.779,0,0,1,1.86,1.774Zm13.86-15.2-.06,0H45.537a1.125,1.125,0,0,0,0,2.25h5.854a3.545,3.545,0,0,1-3.53,3.339H40.615a1.125,1.125,0,0,0,0,2.25h7.732a3.545,3.545,0,0,1-3.53,3.34H29.725l2.03-8.753A7.467,7.467,0,0,1,39.033,27h15.4a3.545,3.545,0,0,1-3.53,3.34Z" transform="translate(0 -16.172)"/><path class="a" d="M356.689,144.3a1.186,1.186,0,1,0-.436-1.439A1.2,1.2,0,0,0,356.689,144.3Z" transform="translate(-316.868 -127.991)"/></g></g></svg>